G04 start of page 2 for group 0 idx 0
G04 Title: (unknown), component *
G04 Creator: pcb-bin 20060822 *
G04 CreationDate: Sun May 27 03:57:59 2007 UTC *
G04 For: justin *
G04 Format: Gerber/RS-274X *
G04 PCB-Dimensions: 200000 130000 *
G04 PCB-Coordinate-Origin: lower left *
%MOIN*%
%FSLAX24Y24*%
%LNGROUP0*%
%ADD11C,0.0200*%
%ADD12C,0.0400*%
%ADD13C,0.0900*%
%ADD14C,0.1500*%
%ADD15R,0.0500X0.0500*%
%ADD16C,0.0500*%
%ADD17R,0.0900X0.0900*%
%ADD18C,0.0600*%
%ADD19R,0.0600X0.0600*%
%ADD20R,0.0650X0.0650*%
%ADD21C,0.0650*%
%ADD22C,0.1300*%
%ADD23C,0.0280*%
%ADD24C,0.0300*%
%ADD25C,0.0430*%
G54D11*X19200Y4700D02*Y700D01*
X18800Y300D02*X19200Y700D01*
G54D12*X18500Y1200D02*Y4300D01*
G54D11*X17500Y2200D02*Y4300D01*
X16500D02*Y4200D01*
G54D12*X14000Y1200D02*Y4300D01*
G54D11*X16500Y5200D02*Y4200D01*
X13000Y4300D02*Y2300D01*
X16500Y5200D02*X18800D01*
G54D12*X10700Y3300D02*Y6500D01*
G54D11*X18800Y5200D02*X19200Y4700D01*
G54D12*X12000Y2300D02*X10700Y3300D01*
X9500Y2300D02*Y4300D01*
X8500Y1200D02*Y4300D01*
X15200Y3300D02*X16500Y2300D01*
X18500Y1200D02*X8500D01*
G54D11*X12000Y8800D02*X9300Y11800D01*
X5400Y9700D02*X5800Y10100D01*
Y10800D01*
G54D12*X11600Y12500D02*X3900D01*
G54D11*X4700Y3700D02*Y2200D01*
Y4700D02*X5700Y3500D01*
Y2200D01*
X3700Y3500D02*Y2200D01*
X9300Y11800D02*X4700D01*
Y8700D02*X5800D01*
G54D12*X3200Y11800D02*Y8400D01*
G54D11*X4700Y9700D02*X5400D01*
G54D12*X3900Y12500D02*X3200Y11800D01*
G54D11*X1700Y2200D02*Y3700D01*
X2700Y3500D02*Y2200D01*
X1700Y4700D02*X2700Y3500D01*
X4700Y5700D02*X6100D01*
G54D12*X3200Y8400D02*X3900Y7700D01*
G54D11*X900Y6800D02*X1700Y7700D01*
G54D12*X15200Y3300D02*Y8900D01*
G54D11*X12000Y4200D02*Y8800D01*
G54D12*X15200Y8900D02*X11600Y12500D01*
G54D11*X7100Y3000D02*Y2300D01*
X1400Y1200D02*X1300D01*
G54D12*X1400D02*X8500D01*
G54D11*X1300D02*X900D01*
X7100D02*Y1800D01*
X900Y300D02*X18800D01*
X6100Y4700D02*Y4000D01*
X7100Y3000D01*
G54D12*X7500Y4300D02*Y6500D01*
X10700D02*X7500D01*
X6500Y7700D02*X7500Y6500D01*
X3900Y7700D02*X6500D01*
G54D11*X500Y700D02*Y7300D01*
Y700D02*X900Y300D01*
X1700Y5700D02*X3700Y3500D01*
X900Y1200D02*Y6800D01*
X500Y7300D02*X1700Y8700D01*
G54D13*X18500Y4300D03*
X17500D03*
G54D14*Y11000D03*
G54D15*X16500Y2300D03*
G54D16*X17500D03*
G54D17*X16500Y4300D03*
G54D14*X13000Y11000D03*
G54D13*X14000Y4300D03*
X13000D03*
G54D17*X12000D03*
G54D15*Y2300D03*
G54D16*X13000D03*
G54D15*X9500D03*
G54D16*X8500D03*
G54D13*X9500Y4300D03*
X8500D03*
G54D17*X7500D03*
G54D14*X8500Y11000D03*
G54D18*X4700Y7700D03*
Y8700D03*
Y11700D03*
G54D19*X5800Y8800D03*
G54D18*Y10800D03*
X4700Y9700D03*
Y10700D03*
X1700Y7700D03*
Y8700D03*
Y9700D03*
Y10700D03*
G54D19*Y11700D03*
G54D18*X5700Y2200D03*
X4700D03*
G54D20*X6100Y4700D03*
G54D21*Y5700D03*
G54D18*X4700D03*
Y6700D03*
X3700Y2200D03*
X4700Y3700D03*
X2700Y2200D03*
X4700Y4700D03*
X1700Y2200D03*
X3700Y1200D03*
X4700D03*
X2700D03*
X5700D03*
G54D19*X1700D03*
G54D18*Y4700D03*
Y5700D03*
Y3700D03*
Y6700D03*
%LNGROUP0_C1*%
%LPC*%
G54D22*G54D11*G54D18*G54D22*G54D18*G54D11*G54D18*G54D22*G54D23*G54D11*G54D23*G54D24*G54D25*G54D23*G54D24*G54D23*G54D24*G54D23*G54D24*G54D23*M02*
