M48
INCH,TZ
T11C0.060
T12C0.130
T13C0.020
T14C0.028
T15C0.030
T16C0.043
%
T13
X013000Y002300
X005800Y010800
X005800Y008800
X016500Y002300
X017500Y002300
X008500Y002300
X009500Y002300
X012000Y002300
T14
X004700Y003700
X004700Y007700
X004700Y008700
X004700Y011700
X004700Y009700
X004700Y010700
X001700Y007700
X001700Y008700
X001700Y009700
X001700Y010700
X001700Y011700
X004700Y005700
X004700Y006700
X004700Y004700
X001700Y004700
X001700Y005700
X001700Y003700
X001700Y006700
T15
X001700Y001200
X001700Y002200
X003700Y001200
X004700Y001200
X005700Y002200
X004700Y002200
X002700Y001200
X005700Y001200
X003700Y002200
X002700Y002200
T16
X006100Y004700
X006100Y005700
T11
X009500Y004300
X008500Y004300
X007500Y004300
X017500Y004300
X018500Y004300
X014000Y004300
X016500Y004300
X012000Y004300
X013000Y004300
T12
X013000Y011000
X017500Y011000
X008500Y011000
M30
